<?xml version="1.0" encoding="UTF-8"?>
<svg id="Layer_1" data-name="Layer 1" xmlns="http://www.w3.org/2000/svg" viewBox="0 0 381.84 435.7">
  <defs>
    <style>
      .cls-1 {
      }

      .cls-2 {
        fill: #f3f4f6;
      }
    </style>
  </defs>
  <path class="cls-2" d="M282.31,0c40.59,1.96,70.24,41.41,55.89,80.96-11.83,32.61-49.45,48.13-81.61,36.04-5.1-1.92-9.71-4.68-14.33-7.5-18.89,14.01-27.98,37.39-22.67,60.58,2.62,11.43,9.54,22.88,18.35,30.58.65.57,2.07,1.99,2.87,1.68,29.4-19.77,70.45-11.33,89.1,18.85,20.37,32.95,3.84,74.79-31.7,87.71-44.27,16.1-92.18-20.1-83.45-67.63,1.71-9.3,5.87-17.9,11.41-25.47-12.06-15.46-31.51-24.07-51.14-23.38-3.93,4.71-8.13,9.37-13.35,12.67-.09.38.13.49.35.72,1.5,1.62,3.67,3.08,5.29,4.79,25.34,26.6,21.05,68.68-8.68,89.91-30.54,21.81-74.63,12.61-92.54-20.58-14.39-26.66-6.09-59.61,18.35-76.89.1-.39-2.65-2.42-3.12-2.87-21.98-20.69-25.57-53.69-7.87-78.4,3.78-5.28,8.68-10.27,14.11-13.84-11.87-9.08-20.7-22.01-23.43-36.89C55.14,22.13,106.6-13.7,150.71,6.27c38.51,17.44,47.97,68.14,16.35,97.12-1.44,1.32-3.46,2.56-4.76,3.87-.16.16-.5.2-.4.56,4.54,3.35,8.53,7.28,12.24,11.51,20.68,2.18,41.93-6.38,54.82-22.64-1.44-2.58-3.36-5.04-4.82-7.69C202.03,48.76,232.07,2.25,276.31,0h6ZM245.37,108.43c-.09.36.05.38.25.58,1.42,1.41,7.13,4.1,9.18,4.97,28.18,12.08,61.81,1.75,77.2-24.83,20.01-34.57-.74-76.79-38.65-85.44-40.82-9.31-80.56,24-73.57,66.38,1.42,8.59,5.03,16.49,9.77,23.7.51.09.66-.33.91-.64,4.39-5.36,10.04-19.49,10.12-26.36.01-1.11-.46-2.66-.5-3.82-.14-3.87.09-9.87,1.15-13.51,7.46-25.69,39.51-35.39,61.06-20.16,26.46,18.71,19.19,59.09-11.64,68.14-6.12,1.8-10.77.74-16.85,1.14-9.92.64-20.04,4.74-28.42,9.84ZM140.08,96.91c7.46,1.41,14.29,4.95,20.71,8.84,21.9-16.22,29.53-45.54,17.36-70.3C165.79,10.34,136.65-2.1,109.61,4.68c-32.79,8.21-52.76,42.28-40.95,74.78,3.81,10.48,10.91,19.61,19.76,26.29,6.39-3.83,13.12-7.26,20.47-8.84l-7.08-3.83c-30.5-20.01-19.88-66.09,15.67-71.9,43.04-7.04,65.54,48.28,29.05,72.23l-6.45,3.5ZM275.54,43.25c-10.74,1.1-18.43,12.71-10.74,21.87,7.31,8.7,24.16,7.17,28.24-3.89s-7.3-19.02-17.5-17.98ZM124.72,67.4h9.71c.4,0,2.32-.98,2.76-1.31,1.07-.81,2.27-2.37,2.52-3.71.44-2.31.39-10.84.11-13.32-.38-3.37-3.7-5.42-6.83-5.65-6.42-.46-13.41.35-19.89.04-2.71.43-5.04,1.97-5.91,4.64-.75,2.3-.76,11.93-.16,14.34.5,2.01,3.19,4.98,5.33,4.98h9.47v2.64h-5.88c-.62,0-1.55,2.28.05,2.58,4.5-.23,9.7.5,14.12.07,1-.1,1.84-.63,1.5-1.76-.06-.2-.73-.89-.8-.89h-6.12v-2.64ZM112.25,119.46c-8.56-1.31-16.56-5.07-23.76-9.74-18.14,13.09-27.37,35.29-23.17,57.51,2.57,13.58,10.34,25.97,21.15,34.44,6.99-4.59,14.91-7.73,23.15-9.3l-4.72-2.35c-28.11-15.95-26.17-55.73,3.6-68.93,1.22-.54,2.79-.81,3.76-1.64ZM171.49,119.94c.1-.36-.09-.4-.24-.6-.29-.42-1.16-1.35-1.56-1.8-2.64-2.93-5.84-5.43-8.91-7.89-5.46,3.63-11.35,6.54-17.65,8.43-1.89.57-4.03.83-5.8,1.4-.27.09-.58.08-.62.45,6.2,1.63,11.69,5.38,16.22,9.82,5.45-4.54,11.43-8.51,18.55-9.82ZM121.85,138.17h-7.56c-1.74,0-4.63,3.1-4.66,4.94.47,6.14-.7,13.4-.02,19.41.27,2.42,2.51,4.8,4.94,5.14,2.65.36,11.7.36,14.35,0,1.81-.25,4.94-2.79,4.94-4.66v-12.59h-9.23c-.7,0-2.76-1.8-2.76-2.52v-9.71ZM124,138.65v8.28c0,.13.74,1.08.84,1.08h8.51c-.28-.86-.66-1.56-1.21-2.27-.87-1.13-5.28-5.62-6.39-6.32-.24-.15-1.64-.89-1.76-.76ZM171.97,192.62c-2.03.4-4.6-.71-6.54-1.5-4.67-1.89-8.7-4.81-12.5-8.08-3.49,3.63-7.7,6.51-12.3,8.58-1.08.49-2.35.76-3.35,1.21-.28.13-.43-.11-.34.5,5.57,1.07,11.07,3.4,15.99,6.2,2.36,1.34,4.52,2.97,6.88,4.31,4.62-3.02,8.71-6.92,12.15-11.22ZM271.94,193.89c-8.29.5-21.62,4.09-28.34,9.08-.2.15-.48.23-.4.56,8.35,6.13,18.82,10.28,29.17,11.37,5.24.55,9.54-.16,14.77,1.3,24.42,6.8,36.18,35.33,22.5,57.15-15.79,25.18-53.9,24.33-68.4-1.64-3.89-6.96-4.66-13.22-4.29-21.16.25-5.38.44-7.33-.92-12.73-1.73-6.9-4.94-13.49-9.03-19.27-17.86,23.92-13.68,56.87,8.27,76.64,33.49,30.17,90.11,13.92,99.9-30.58,8.68-39.41-24.18-73.04-63.25-70.7ZM110.81,215.41c-8.89-1.63-17.12-5.75-24.39-11-26.3,17.7-33.33,53.6-15.14,79.92,23.6,34.15,75.4,34.56,99.69.96,17.02-23.54,13.6-56.69-8.11-76-.44-.39-2.77-2.41-3.05-2.48s-.49.01-.72.15c-7.37,4.82-15.81,7.98-24.54,9.29l-.24.36c25.14,8.25,34.77,39.08,17.98,60.08-16.46,20.6-49.17,19.35-63.99-2.44-13.41-19.72-5.52-46.37,15.86-56.25,2.04-.94,4.16-1.43,6.16-2.24.23-.09.55-.03.48-.35ZM262.04,240.83c.91-.26,2.9.19,3.96,0-2.16,2.15-3.79,4.2-4.68,7.2-1.08,3.67-.43,7.49-.6,11.27-5.24-.4-6.12,7.26-4.36,10.72,2.1,4.13,11.41,3.93,12.41-1.35.71-3.75.15-9.33-4.69-9.37.23-3.31-.5-7.07.41-10.26.77-2.71,2.76-4.87,4.99-6.51,2.68,4.36,8.98,4.65,11.4-.02,6.37,3.49,5.96,10.46,5.75,16.79-2.4-.18-4.53,1.82-4.8,4.2-.42,3.79-.24,8.64,4.46,9.21,3.51.43,8.01-.12,8.49-4.41.44-3.89.19-8.9-4.8-9,.33-6.89.18-13.55-5.28-18.47h4.08c.06,0,.15.57.6.96,3.61,3.14,7.86-3.1,3.81-5.48-2.14-1.26-3.12-.04-4.77,1.16h-6.67c-2.24-6.58-10.7-6.69-12.78.02h-7.12c-1.06-2.13-4.3-2.2-5.5-.19-1.66,2.77.51,5.89,3.72,5.16.89-.21,1.6-1.52,1.97-1.63ZM113.69,254.03h16.91c1.51,0,3.89-2.28,4.53-3.62s1.91-7.71,1.83-9.2-1.43-3.41-2.93-3.8l-22.36-.15c-.4-1.69-.88-3.17-2.61-3.9-2.96-1.25-4.24,1.42-2.42,2.42.85.47,1.9,0,2.2,1.4.84,5.37.77,11.4,1.79,16.68.65,3.35,3.13,5.62,6.54,5.93s9.79.3,13.2.01c2.83-.24,2.71-2.86.24-3.13-4.55-.5-9.94.43-14.59-.04-1.07-.48-2.28-1.31-2.33-2.59Z"/>
  <path class="cls-2" d="M267.25,365.42c-.58-1.25-5.25-5.29-5.1-6.29,2.34-1.67,4.16-4.2,6.62-5.64h44.36s5.87,5.88,5.87,5.88l-6.83,6.1-44.92-.05Z"/>
  <polygon class="cls-2" points="184.21 353.48 171.27 365.37 148.34 365.49 137.2 353.48 184.21 353.48"/>
  <polygon class="cls-2" points="249.21 353.48 236.27 365.37 213.34 365.49 202.2 353.48 249.21 353.48"/>
  <polygon class="cls-2" points="53.97 353.48 41.03 365.37 18.1 365.49 6.96 353.48 53.97 353.48"/>
  <path class="cls-2" d="M47.01,435.28H0l12.94-11.89,22.21-.12c1.19.12,2.37,1.63,3.23,2.53,2.95,3.07,5.65,6.43,8.63,9.48Z"/>
  <path class="cls-2" d="M288.7,396.68c.28-.05,2.49,2.42,2.85,2.86.46.57,1.24,1.37,1.33,2.03-1.04,8.68-1.08,17.76-2.17,26.4-.07.57-.19,1.45-.47,1.93s-4.85,4.75-5.52,5.27c-.27.21-.51.46-.85.54l-5.64-6.31,2.18-24.68.36-.84,7.94-7.19Z"/>
  <polygon class="cls-2" points="334.76 423.09 361.09 423.05 366.96 429.16 360.09 435.23 334 435.27 328.12 429.16 334.76 423.09"/>
  <polygon class="cls-2" points="340.28 388.07 365.65 388.03 371.53 394.14 364.65 400.21 339.28 400.25 333.4 394.14 340.28 388.07"/>
  <path class="cls-2" d="M72.2,353.48h35.14c.62.99,5.49,5.39,5.37,6.08l-6.08,5.68-.96.24-22.27-.06-11.2-11.94Z"/>
  <path class="cls-2" d="M14.56,388.31l25.61-.04c2.24,1.64,4.02,4,5.88,6.1l-6.84,5.88H13.8c-.94-.18-4.91-4.96-5.62-6.08l6.38-5.86Z"/>
  <path class="cls-2" d="M209.8,388.31l25.61-.04c2.24,1.64,4.02,4,5.88,6.1l-6.84,5.88h-25.41c-.94-.18-4.91-4.96-5.62-6.08l6.38-5.86Z"/>
  <polygon class="cls-2" points="65.24 435.28 77.96 423.41 101.21 423.41 106.48 429.37 100.14 435.28 65.24 435.28"/>
  <polygon class="cls-2" points="159.89 368.37 165.27 374.22 165.51 374.94 163.29 398.64 156.74 404.8 151.23 398.81 151.11 397.02 153.07 374.76 159.89 368.37"/>
  <polygon class="cls-2" points="381.84 353 378.96 386.94 373.81 392.1 367.03 384.25 368.64 365.34 381.84 353"/>
  <path class="cls-2" d="M192.84,435.28l2.93-34.13,5.07-4.47,6.87,7.79-1.51,17.67c-.08,1.19-.94,1.82-1.73,2.59-3.18,3.11-7.08,6.86-10.44,9.71-.17.14-1.16.9-1.2.84Z"/>
  <path class="cls-2" d="M127.84,435.28l2.93-34.13,5.07-4.47,6.87,7.79-1.51,17.67c-.08,1.19-.94,1.82-1.73,2.59-3.18,3.11-7.08,6.86-10.44,9.71-.17.14-1.16.9-1.2.84Z"/>
  <path class="cls-2" d="M330.04,353.24c.47-.12.46.19.67.4,3.6,3.55,6.71,7.92,10.37,11.46l.25.73-1.77,18.41-8.21,7.86-4.17-5.14,2.85-33.71Z"/>
  <path class="cls-2" d="M179.41,435.28l-10.8-11.62-.24-.72,1.5-18.67,8.26-7.59c.28-.05.4.18.58.33.38.32,3.15,3.47,3.36,3.84.14.24.27.43.24.72l-2.9,33.71Z"/>
  <path class="cls-2" d="M244.41,435.28l-10.8-11.62-.24-.72,1.5-18.67,8.26-7.59c.28-.05.4.18.58.33.38.32,3.15,3.47,3.36,3.84.14.24.27.43.24.72l-2.9,33.71Z"/>
  <path class="cls-2" d="M251.37,355.88l-2.95,31.83-4.85,4.38-6.79-7.6,1.15-16.5c.1-.54,5.35-5.2,6.23-6,2.04-1.86,4.35-4.06,6.48-5.76.24-.19.31-.46.72-.36Z"/>
  <path class="cls-2" d="M186.37,355.88l-2.95,31.83-4.85,4.38-6.79-7.6,1.15-16.5c.1-.52.81-1.08,1.19-1.45,3.41-3.28,7.85-7.4,11.51-10.31.24-.19.31-.46.72-.36Z"/>
  <path class="cls-2" d="M199.56,355.88c.45-.07.69.31.96.59,3.42,3.53,6.5,7.4,10.08,10.79l.25.73-1.51,16.51-8.23,7.55-4.17-4.84,2.62-31.32Z"/>
  <path class="cls-2" d="M63.08,432.88l2.67-31.75,5.09-4.46,6.82,7.59-1.22,15.48c-.12,1.32-1.3,2.19-2.21,3.07-3.02,2.94-6.55,6.23-9.72,8.99-.44.39-.98.71-1.44,1.08Z"/>
  <path class="cls-2" d="M134.56,355.88c.45-.07.69.31.96.59,3.34,3.45,6.37,7.22,9.83,10.56l.5,1.2-1.51,16.25-8.23,7.55-4.17-4.84,2.62-31.32Z"/>
  <path class="cls-2" d="M49.41,432.88l-11.16-12.1,1.38-16.51,8.26-7.59c.28-.05.4.18.58.33.38.32,3.15,3.47,3.36,3.84.14.24.27.43.24.72l-2.66,31.31Z"/>
  <path class="cls-2" d="M69.56,355.88c.25-.28,1.57,1.2,1.8,1.43,3.12,3.27,5.98,6.81,9.24,9.95l.24.72-1.51,16.51-8.01,7.59-4.35-4.69,2.58-31.51Z"/>
  <path class="cls-2" d="M14.09,384.61l-8.22,7.44-4.16-4.67,2.6-31.5c.23-.27,1.14.76,1.32.96,3.36,3.5,6.52,7.24,9.84,10.78l-1.39,16.99Z"/>
  <path class="cls-2" d="M114.77,361.64l5.18,5.85c.34.65.26,1.48.23,2.19-.22,5.73-1.3,11.68-1.5,17.45l-.42.77-4.68,4.15-6.71-7.4c-.13-5.53.92-11.07,1.12-16.62l6.79-6.4Z"/>
  <polygon class="cls-2" points="373.33 396.42 377.52 401.1 375.82 420.74 369.25 426.88 363.72 420.54 365.28 403.96 373.33 396.42"/>
  <path class="cls-2" d="M113.12,396.68c.32-.06,4.04,4.07,4.16,4.66l-1.45,18.93-.36.84-6.43,5.75-5.42-6.1,1.21-16.05.36-.84,7.94-7.19Z"/>
  <path class="cls-2" d="M289.66,368.85l.58.33c.77,1.5,4.97,4.82,5.05,6.25l-1.03,11.71-5.11,4.96-6.71-7.44c-.21-3.21.32-6.62.72-9.82l6.5-5.99Z"/>
  <path class="cls-1" d="M124,138.31c.12-.14,1.52.61,1.76.76,1.11.7,5.52,5.19,6.39,6.32.55.72.93,1.41,1.21,2.27h-8.51c-.1,0-.84-.95-.84-1.08v-8.28Z"/>
  <g>
    <path class="cls-2" d="M118.9,48.65c.99-.3,2.25.4,1.95,1.46-.22.78-3.51,3.17-4.06,4.12-.2.35-.28.55-.25.97.07,1.32,3.83,3.58,4.25,4.91.25.79-.43,1.67-1.22,1.67-.89,0-5.08-4.12-5.45-5.09-.45-1.2-.28-2.69.43-3.75.3-.45,4.06-4.2,4.35-4.29Z"/>
    <path class="cls-2" d="M126.82,48.64c.37-.11.68-.05,1.04.06.45.15,3.89,3.53,4.3,4.09,1.19,1.62.95,3.48-.24,5.03-.45.58-3.1,3.05-3.71,3.48-1.26.9-2.59.01-2.24-1.26.21-.78,3.51-3.17,4.05-4.12,1.41-2.43-4.59-4.42-4.05-6.44.07-.27.58-.77.86-.85Z"/>
  </g>
  <g>
    <path class="cls-2" d="M116.5,155.16l10.26-.05c1.46.49,1.29,2.13-.25,2.38s-8.05.24-9.56,0c-1.41-.22-1.84-1.68-.44-2.33Z"/>
    <path class="cls-2" d="M115.91,162c-.5-.5-.25-1.47.33-1.84.7-.45,6.91-.44,7.53.09.52.69.35,1.85-.61,2.03-1.08.2-4.78.12-6,.02-.38-.03-.98-.04-1.25-.31Z"/>
  </g>
  <g>
    <path class="cls-2" d="M272.47,60.11c-.74-2.23-.99-4.84.12-6.96h10.31c1.15,1.98,1.15,4.97,0,6.96h-10.43Z"/>
    <path class="cls-2" d="M269.59,53.16c-.67,2.3-.67,4.66,0,6.96h-4.56c-.66-2.36-.66-4.6,0-6.96h4.56Z"/>
    <path class="cls-2" d="M290.46,53.16c.73,2.19.72,4.78,0,6.96h-4.32c.41-2.41.41-4.55,0-6.96h4.32Z"/>
    <path class="cls-2" d="M281.83,50.76h-8.15c1.07-1.84,2.42-3.59,3.99-5.02.58-.1,4.02,4.08,4.16,5.02Z"/>
    <path class="cls-2" d="M281.83,62.51c.21.18-1.24,1.99-1.45,2.27-.75.98-1.57,1.92-2.51,2.72-.56,0-3.91-4.1-4.2-4.99h8.15Z"/>
    <path class="cls-2" d="M270.43,62.51c.93,1.55,1.99,2.92,3.12,4.32.16.19.64.48.24.72-2.84-.9-5.71-2.45-7.31-5.04h3.96Z"/>
    <path class="cls-2" d="M289.02,50.76h-4.08c-.81-1.81-2-3.49-3.36-4.92,1.46.03,3.78,1.24,5.01,2.18.8.61,2.04,1.82,2.42,2.74Z"/>
    <path class="cls-2" d="M266.48,50.76c1.6-2.6,4.45-4.2,7.31-5.04l-3.36,5.04h-3.96Z"/>
    <path class="cls-2" d="M289.02,62.51c-1.51,2.62-4.48,4.19-7.31,5.04l3.36-5.04h3.96Z"/>
  </g>
</svg>